# xmcd
#
# Track frame offsets:
#	150
#	16582
#	31711
#	51525
#	64932
#	81932
#	97406
#	112888
#	133815
#	148355
#
# Disc length: 2617 seconds
# Revision: 0
# Processed by: cddbd v1.5.2PL0 Copyright (c) Steve Scherf et al.
# Submitted via: dBpowerAMP V12.0
#
DISCID=8f0a370a
DTITLE=Richard Bennett - In the Wind Somewhere
DYEAR=2014
DGENRE=Country
TTITLE0=In the Wind Somewhere
TTITLE1=Bonnie
TTITLE2=Fields of Gold
TTITLE3=Stronger Every Day
TTITLE4=The Last Thing On My Mind
TTITLE5=Yesterday
TTITLE6=Georgie
TTITLE7=Fire On the Mountain
TTITLE8=Across the Great Divide
TTITLE9=Wayfaring Stranger
EXTD=
EXTT0=
EXTT1=
EXTT2=
EXTT3=
EXTT4=
EXTT5=
EXTT6=
EXTT7=
EXTT8=
EXTT9=
PLAYORDER=
